<?xml version="1.0" encoding="UTF-8"?>
<svg xmlns="http://www.w3.org/2000/svg" viewBox="0 0 1080 1080">
  <defs>
    <style>
      .cls-1 {
        fill: #fff;
      }

      .cls-2 {
        fill: #edbe1c;
        font-family: BebasNeue-Regular, 'Bebas Neue';
        font-size: 132.99px;
      }
    </style>
  </defs>
  <g id="Layer_18" data-name="Layer 18">
    <path class="cls-1" d="M794.39,434.25c1.51,8.24,2.44,16.7,2.73,25.31,.06,1.9,.11,3.83,.11,5.75v335.02c-73.94,0-136.9-47.12-160.46-112.97l-20.38,32.67c-1.04,1.64-2.08,3.27-3.16,4.85-33.03,49.2-87.64,75.91-143.26,75.35h-1.21c-31.93,.32-63.52-8.33-90.88-25.1l90.91-142.29,.58,.93,50.1-80.28,49.97-78.23,25.31-39.59h-157.41c0-92.16,73.19-167.25,164.61-170.28,1.93-.09,3.85-.11,5.8-.11h335c0,86.62-64.66,158.14-148.37,168.96Z"/>
    <path class="cls-1" d="M461.06,626.36l-90.91,142.29c-20.34-12.4-38.31-29.29-52.4-50.26-1.06-1.58-2.1-3.2-3.14-4.85L137.25,429.34c78.21-48.81,180.64-26.46,231.61,49.5,1.08,1.58,2.12,3.2,3.16,4.85l89.05,142.68Z"/>
  </g>
  <g id="Layer_19" data-name="Layer 19">
    <text class="cls-2" transform="translate(906.16 -496.08) rotate(118.09)"><tspan x="0" y="0">T</tspan></text>
    <text class="cls-2" transform="translate(870.79 -433.97) rotate(129.11)"><tspan x="0" y="0">A</tspan></text>
    <text class="cls-2" transform="translate(820.8 -376.21) rotate(140.49)"><tspan x="0" y="0">Y</tspan></text>
    <text class="cls-2" transform="translate(756.02 -326.74) rotate(152.72)"><tspan x="0" y="0">B</tspan></text>
    <text class="cls-2" transform="translate(680.97 -291.57) rotate(164.97)"><tspan x="0" y="0">A</tspan></text>
    <text class="cls-2" transform="translate(600.5 -273.97) rotate(174.84)"><tspan x="0" y="0"> </tspan></text>
    <text class="cls-2" transform="translate(550.1 -270.74) rotate(-175.58)"><tspan x="0" y="0">T</tspan></text>
    <text class="cls-2" transform="translate(473.03 -279.5) rotate(-163.57)"><tspan x="0" y="0">R</tspan></text>
    <text class="cls-2" transform="translate(394.64 -305.88) rotate(-151.4)"><tspan x="0" y="0">A</tspan></text>
    <text class="cls-2" transform="translate(326.82 -345.9) rotate(-139.84)"><tspan x="0" y="0">V</tspan></text>
    <text class="cls-2" transform="translate(267.81 -399.81) rotate(-128.05)"><tspan x="0" y="0">E</tspan></text>
    <text class="cls-2" transform="translate(222.52 -462.58) rotate(-116.72)"><tspan x="0" y="0">L</tspan></text>
  </g>
</svg>