<?xml version="1.0" encoding="UTF-8"?>
<svg id="Layer_9" data-name="Layer 9" xmlns="http://www.w3.org/2000/svg" viewBox="0 0 1080 1080">
  <defs>
    <style>
      .cls-1 {
        fill: #fff;
      }
    </style>
  </defs>
  <path class="cls-1" d="M703.69,508.32c.98,5.31,1.58,10.76,1.76,16.31,.04,1.23,.07,2.47,.07,3.71v215.89c-47.65,0-88.22-30.36-103.4-72.8l-13.13,21.05c-.67,1.06-1.34,2.11-2.04,3.12-21.29,31.7-56.48,48.92-92.32,48.56h-.78c-20.58,.21-40.93-5.37-58.57-16.17l58.58-91.69,.38,.6,32.29-51.74,32.2-50.41,16.31-25.51h-101.44c0-59.39,47.16-107.78,106.08-109.73,1.24-.06,2.48-.07,3.74-.07h215.88c0,55.82-41.67,101.91-95.61,108.88Z"/>
  <path class="cls-1" d="M491.08,633.51l-58.58,91.69c-13.1-7.99-24.69-18.88-33.77-32.39-.68-1.02-1.35-2.06-2.02-3.12l-114.3-183.15c50.4-31.45,116.41-17.05,149.25,31.9,.7,1.02,1.37,2.06,2.04,3.12l57.38,91.94Z"/>
</svg>