<?xml version="1.0" encoding="UTF-8"?>
<svg xmlns="http://www.w3.org/2000/svg" viewBox="0 0 1080 1080">
  <defs>
    <style>
      .cls-1 {
        font-size: 132.99px;
      }

      .cls-1, .cls-2 {
        font-family: BebasNeue-Regular, 'Bebas Neue';
      }

      .cls-1, .cls-2, .cls-3 {
        fill: #010101;
      }

      .cls-2 {
        font-size: 132.99px;
      }

      .cls-4 {
        fill: #095f5d;
      }

      .cls-5 {
        fill: #231f20;
      }
    </style>
  </defs>
  <g id="Layer_11" data-name="Layer 11">
    <g>
      <text class="cls-1" transform="translate(879.17 -486.73) rotate(118.09)"><tspan x="0" y="0">T</tspan></text>
      <text class="cls-1" transform="translate(843.79 -424.62) rotate(129.11)"><tspan x="0" y="0">A</tspan></text>
      <text class="cls-1" transform="translate(793.81 -366.86) rotate(140.49)"><tspan x="0" y="0">Y</tspan></text>
      <text class="cls-1" transform="translate(729.03 -317.39) rotate(152.72)"><tspan x="0" y="0">B</tspan></text>
      <text class="cls-1" transform="translate(653.98 -282.22) rotate(164.97)"><tspan x="0" y="0">A</tspan></text>
      <text class="cls-1" transform="translate(573.51 -264.63) rotate(174.84)"><tspan x="0" y="0"> </tspan></text>
      <text class="cls-1" transform="translate(523.11 -261.39) rotate(-175.58)"><tspan x="0" y="0">T</tspan></text>
      <text class="cls-1" transform="translate(446.04 -270.15) rotate(-163.57)"><tspan x="0" y="0">R</tspan></text>
      <text class="cls-1" transform="translate(367.64 -296.53) rotate(-151.4)"><tspan x="0" y="0">A</tspan></text>
      <text class="cls-1" transform="translate(299.83 -336.56) rotate(-139.84)"><tspan x="0" y="0">V</tspan></text>
      <text class="cls-1" transform="translate(240.82 -390.46) rotate(-128.05)"><tspan x="0" y="0">E</tspan></text>
      <text class="cls-1" transform="translate(195.53 -453.23) rotate(-116.72)"><tspan x="0" y="0">L</tspan></text>
    </g>
  </g>
  <g id="Layer_12" data-name="Layer 12">
    <circle class="cls-4" cx="540" cy="540" r="357.97"/>
    <text class="cls-2" transform="translate(168.94 435.87) rotate(-70.6)"><tspan x="0" y="0">V</tspan></text>
    <text class="cls-2" transform="translate(198.11 361.74) rotate(-58.53)"><tspan x="0" y="0">O</tspan></text>
    <text class="cls-2" transform="translate(242.25 295.05) rotate(-46.62)"><tspan x="0" y="0">Y</tspan></text>
    <text class="cls-2" transform="translate(295.69 241.78) rotate(-35.33)"><tspan x="0" y="0">A</tspan></text>
    <text class="cls-2" transform="translate(364.49 196.83) rotate(-23.25)"><tspan x="0" y="0">G</tspan></text>
    <text class="cls-2" transform="translate(440.19 167.77) rotate(-11.46)"><tspan x="0" y="0">E</tspan></text>
    <text class="cls-2" transform="translate(516.86 155.23) rotate(.27)"><tspan x="0" y="0">s</tspan></text>
    <text class="cls-2" transform="translate(595.31 159.24) rotate(9.91)"><tspan x="0" y="0"> </tspan></text>
    <text class="cls-2" transform="translate(644.82 169.21) rotate(19.33)"><tspan x="0" y="0">T</tspan></text>
    <text class="cls-2" transform="translate(711.6 194.73) rotate(30.36)"><tspan x="0" y="0">A</tspan></text>
    <text class="cls-2" transform="translate(776.28 235.33) rotate(41.73)"><tspan x="0" y="0">Y</tspan></text>
    <text class="cls-2" transform="translate(835.06 291.85) rotate(53.97)"><tspan x="0" y="0">B</tspan></text>
    <text class="cls-2" transform="translate(881.22 360.64) rotate(66.21)"><tspan x="0" y="0">A</tspan></text>
    <g>
      <text class="cls-1" transform="translate(890.54 700.01) rotate(118.09)"><tspan x="0" y="0">T</tspan></text>
      <text class="cls-1" transform="translate(855.16 762.11) rotate(129.11)"><tspan x="0" y="0">A</tspan></text>
      <text class="cls-1" transform="translate(805.18 819.88) rotate(140.49)"><tspan x="0" y="0">Y</tspan></text>
      <text class="cls-1" transform="translate(740.39 869.35) rotate(152.72)"><tspan x="0" y="0">B</tspan></text>
      <text class="cls-1" transform="translate(665.34 904.51) rotate(164.97)"><tspan x="0" y="0">A</tspan></text>
      <text class="cls-1" transform="translate(584.87 922.11) rotate(174.84)"><tspan x="0" y="0"> </tspan></text>
      <text class="cls-1" transform="translate(534.48 925.35) rotate(-175.58)"><tspan x="0" y="0">T</tspan></text>
      <text class="cls-1" transform="translate(457.41 916.58) rotate(-163.57)"><tspan x="0" y="0">R</tspan></text>
      <text class="cls-1" transform="translate(379.01 890.2) rotate(-151.4)"><tspan x="0" y="0">A</tspan></text>
      <text class="cls-1" transform="translate(311.2 850.18) rotate(-139.84)"><tspan x="0" y="0">V</tspan></text>
      <text class="cls-1" transform="translate(252.19 796.27) rotate(-128.05)"><tspan x="0" y="0">E</tspan></text>
      <text class="cls-1" transform="translate(206.9 733.51) rotate(-116.72)"><tspan x="0" y="0">L</tspan></text>
    </g>
    <path class="cls-5" d="M705.57,481.16c.98,5.31,1.58,10.76,1.76,16.31,.04,1.23,.07,2.47,.07,3.71v215.89c-47.65,0-88.22-30.36-103.4-72.8l-13.13,21.05c-.67,1.06-1.34,2.11-2.04,3.12-21.29,31.7-56.48,48.92-92.32,48.56h-.78c-20.58,.21-40.93-5.37-58.57-16.17l58.58-91.69,.38,.6,32.29-51.74,32.2-50.41,16.31-25.51h-101.44c0-59.39,47.16-107.78,106.08-109.73,1.24-.06,2.48-.07,3.74-.07h215.88c0,55.82-41.67,101.91-95.61,108.88Z"/>
    <path class="cls-5" d="M492.96,606.35l-58.58,91.69c-13.1-7.99-24.69-18.88-33.77-32.39-.68-1.02-1.35-2.06-2.02-3.12l-114.3-183.15c50.4-31.45,116.41-17.05,149.25,31.9,.7,1.02,1.37,2.06,2.04,3.12l57.38,91.94Z"/>
    <path class="cls-3" d="M921.32,621.17c-1.36-6.69-2.62-12.96-3.91-19.21-1.17-5.66-2.48-11.29-3.48-16.98-.26-1.5,0-3.37,.71-4.71,16.9-31.92,33.89-63.79,50.86-95.67,2.09-3.92,4.17-7.85,6.5-12.24,.64,1.1,1.12,1.86,1.55,2.66,18.63,35.03,37.27,70.05,55.82,105.12,.75,1.41,1.05,3.39,.77,4.97-2.04,11.55-4.28,23.07-6.47,34.59-.08,.43-.29,.83-.55,1.53-1.35-.87-2.61-1.64-3.82-2.46-13.12-8.89-26.25-17.75-39.3-26.74-.98-.68-1.8-2.17-1.95-3.37-1.62-12.7-3.1-25.43-4.61-38.15-.33-2.79-.67-5.57-1.61-8.39-.3,2.23-.66,4.45-.9,6.69-1.47,13.44-2.9,26.89-4.39,40.32-.08,.7-.45,1.61-.99,1.98-14.55,9.94-29.13,19.82-44.21,30.04Z"/>
    <path class="cls-3" d="M153.94,493.14c1.36,6.69,2.62,12.96,3.91,19.21,1.17,5.66,2.48,11.29,3.48,16.98,.26,1.5,0,3.37-.71,4.71-16.9,31.92-33.89,63.79-50.86,95.67-2.09,3.92-4.17,7.85-6.5,12.24-.64-1.1-1.12-1.86-1.55-2.66-18.63-35.03-37.27-70.05-55.82-105.12-.75-1.41-1.05-3.39-.77-4.97,2.04-11.55,4.28-23.07,6.47-34.59,.08-.43,.29-.83,.55-1.53,1.35,.87,2.61,1.64,3.82,2.46,13.12,8.89,26.25,17.75,39.3,26.74,.98,.68,1.8,2.17,1.95,3.37,1.62,12.7,3.1,25.43,4.61,38.15,.33,2.79,.67,5.57,1.61,8.39,.3-2.23,.66-4.45,.9-6.69,1.47-13.44,2.9-26.89,4.39-40.32,.08-.7,.45-1.61,.99-1.98,14.55-9.94,29.13-19.82,44.21-30.04Z"/>
  </g>
</svg>