<?xml version="1.0" encoding="UTF-8"?>
<svg id="Layer_4" data-name="Layer 4" xmlns="http://www.w3.org/2000/svg" viewBox="0 0 1080 1080">
  <defs>
    <style>
      .cls-1, .cls-2, .cls-3 {
        fill: #fff;
      }

      .cls-2 {
        font-size: 132.99px;
      }

      .cls-2, .cls-3 {
        font-family: BebasNeue-Regular, 'Bebas Neue';
      }

      .cls-3 {
        font-size: 132.99px;
      }
    </style>
  </defs>
  <text class="cls-2" transform="translate(165.75 452.67) rotate(-72.46)"><tspan x="0" y="0">V</tspan></text>
  <text class="cls-2" transform="translate(192.5 377.64) rotate(-60.4)"><tspan x="0" y="0">O</tspan></text>
  <text class="cls-2" transform="translate(234.45 309.55) rotate(-48.48)"><tspan x="0" y="0">Y</tspan></text>
  <text class="cls-2" transform="translate(286.13 254.57) rotate(-37.19)"><tspan x="0" y="0">A</tspan></text>
  <text class="cls-2" transform="translate(353.44 207.41) rotate(-25.11)"><tspan x="0" y="0">G</tspan></text>
  <text class="cls-2" transform="translate(428.17 175.89) rotate(-13.32)"><tspan x="0" y="0">E</tspan></text>
  <text class="cls-2" transform="translate(504.37 160.88) rotate(-1.59)"><tspan x="0" y="0">s</tspan></text>
  <text class="cls-2" transform="translate(582.91 162.34) rotate(8.05)"><tspan x="0" y="0"> </tspan></text>
  <text class="cls-2" transform="translate(632.72 170.7) rotate(17.47)"><tspan x="0" y="0">T</tspan></text>
  <text class="cls-2" transform="translate(700.29 194.03) rotate(28.5)"><tspan x="0" y="0">A</tspan></text>
  <text class="cls-2" transform="translate(766.26 232.51) rotate(39.87)"><tspan x="0" y="0">Y</tspan></text>
  <text class="cls-2" transform="translate(826.84 287.09) rotate(52.1)"><tspan x="0" y="0">B</tspan></text>
  <text class="cls-2" transform="translate(875.21 354.35) rotate(64.35)"><tspan x="0" y="0">A</tspan></text>
  <g>
    <text class="cls-3" transform="translate(890.54 704.68) rotate(118.09)"><tspan x="0" y="0">T</tspan></text>
    <text class="cls-3" transform="translate(855.16 766.79) rotate(129.11)"><tspan x="0" y="0">A</tspan></text>
    <text class="cls-3" transform="translate(805.18 824.55) rotate(140.49)"><tspan x="0" y="0">Y</tspan></text>
    <text class="cls-3" transform="translate(740.4 874.02) rotate(152.72)"><tspan x="0" y="0">B</tspan></text>
    <text class="cls-3" transform="translate(665.35 909.19) rotate(164.97)"><tspan x="0" y="0">A</tspan></text>
    <text class="cls-3" transform="translate(584.88 926.79) rotate(174.84)"><tspan x="0" y="0"> </tspan></text>
    <text class="cls-3" transform="translate(534.48 930.02) rotate(-175.58)"><tspan x="0" y="0">T</tspan></text>
    <text class="cls-3" transform="translate(457.41 921.26) rotate(-163.57)"><tspan x="0" y="0">R</tspan></text>
    <text class="cls-3" transform="translate(379.01 894.88) rotate(-151.4)"><tspan x="0" y="0">A</tspan></text>
    <text class="cls-3" transform="translate(311.2 854.85) rotate(-139.84)"><tspan x="0" y="0">V</tspan></text>
    <text class="cls-3" transform="translate(252.19 800.95) rotate(-128.05)"><tspan x="0" y="0">E</tspan></text>
    <text class="cls-3" transform="translate(206.9 738.18) rotate(-116.72)"><tspan x="0" y="0">L</tspan></text>
  </g>
  <path class="cls-1" d="M705.57,485.83c.98,5.31,1.58,10.76,1.76,16.31,.04,1.23,.07,2.47,.07,3.71v215.89c-47.65,0-88.22-30.36-103.4-72.8l-13.13,21.05c-.67,1.06-1.34,2.11-2.04,3.12-21.29,31.7-56.48,48.92-92.32,48.56h-.78c-20.58,.21-40.93-5.37-58.57-16.17l58.58-91.69,.38,.6,32.29-51.74,32.2-50.41,16.31-25.51h-101.44c0-59.39,47.16-107.78,106.08-109.73,1.24-.06,2.48-.07,3.74-.07h215.88c0,55.82-41.67,101.91-95.61,108.88Z"/>
  <path class="cls-1" d="M492.96,611.02l-58.58,91.69c-13.1-7.99-24.69-18.88-33.77-32.39-.68-1.02-1.35-2.06-2.02-3.12l-114.3-183.15c50.4-31.45,116.41-17.05,149.25,31.9,.7,1.02,1.37,2.06,2.04,3.12l57.38,91.94Z"/>
</svg>