<svg xmlns="http://www.w3.org/2000/svg" version="1.1" xmlns:xlink="http://www.w3.org/1999/xlink" xmlns:svgjs="http://svgjs.dev/svgjs" width="1000" height="623" viewBox="0 0 1000 623"><g transform="matrix(1,0,0,1,-0.6060606060606233,0.2522267206477409)"><svg viewBox="0 0 396 247" data-background-color="#ffffff" preserveAspectRatio="xMidYMid meet" height="623" width="1000" xmlns="http://www.w3.org/2000/svg" xmlns:xlink="http://www.w3.org/1999/xlink"><g id="tight-bounds" transform="matrix(1,0,0,1,0.2400000000000091,-0.09999999999999432)"><svg viewBox="0 0 395.52 247.2" height="247.2" width="395.52"><g><svg></svg></g><g><svg viewBox="0 0 395.52 247.2" height="247.2" width="395.52"><g transform="matrix(1,0,0,1,113.50983445544553,47.215199999999996)"><svg viewBox="0 0 168.50033108910893 152.7696" height="152.7696" width="168.50033108910893"><g><svg viewBox="0 0 168.50033108910893 152.7696" height="152.7696" width="168.50033108910893"><g><svg viewBox="0 0 168.50033108910893 152.7696" height="152.7696" width="168.50033108910893"><g><svg viewBox="0 0 168.50033108910893 152.7696" height="152.7696" width="168.50033108910893"><g id="textblocktransform"><svg viewBox="0 0 168.50033108910893 152.7696" height="152.7696" width="168.50033108910893" id="textblock"><g><svg viewBox="0 0 168.50033108910893 152.7696" height="152.7696" width="168.50033108910893"><g transform="matrix(1,0,0,1,0,0)"><svg width="168.50033108910893" viewBox="0.25999999046325684 -35 38.9900016784668 35.349998474121094" height="152.7696" data-palette-color="#31c48d"><path d="M9.7 0.35L9.7 0.35Q8.75 0.35 8.18-0.48 7.6-1.3 7.3-2.55L7.3-2.55Q6.8-4.6 6.1-7.68 5.4-10.75 4.63-14.28 3.85-17.8 3.08-21.25 2.3-24.7 1.7-27.55 1.1-30.4 0.73-32.1 0.35-33.8 0.35-33.8L0.35-33.8Q0.2-34.45 0.3-34.73 0.4-35 1.25-35L1.25-35 4.55-35 8.7-15.65Q9.15-13.45 9.5-11.23 9.85-9 10.15-7.03 10.45-5.05 10.7-3.45L10.7-3.45Q10.9-5.05 11.18-7.03 11.45-9 11.8-11.23 12.15-13.45 12.5-15.65L12.5-15.65 16.25-33.8Q16.35-34.4 16.53-34.7 16.7-35 17.3-35L17.3-35 20.8-35 13.1 0.15Q12.3 0.25 11.58 0.3 10.85 0.35 9.7 0.35ZM28.2 0L28.2 0 28.2-34.4Q28.2-34.4 28.3-34.48 28.4-34.55 29-34.55L29-34.55 31.4-34.55Q32.05-34.55 32.15-34.48 32.25-34.4 32.25-34.4L32.25-34.4 32.25-0.8Q32.25-0.4 32.07-0.25 31.9-0.1 31.05-0.05 30.2 0 28.2 0ZM38.4-31.2L21.4-31.2 21.4-34.2Q21.4-35 22.25-35L22.25-35 39.25-35 39.25-32Q39.25-31.55 39.05-31.38 38.85-31.2 38.4-31.2L38.4-31.2Z" opacity="1" transform="matrix(1,0,0,1,0,0)" fill="#31c48d" class="undefined-text-0" data-fill-palette-color="primary" id="text-0"></path></svg></g></svg></g></svg></g></svg></g></svg></g></svg></g></svg></g><g><path d="M0 123.6c0-68.262 55.338-123.6 123.6-123.6 30.402 0 58.24 10.976 79.768 29.183l-11.147 0c-19.26-14.022-42.974-22.294-68.621-22.295-64.458 0-116.712 52.254-116.712 116.712 0 64.458 52.254 116.712 116.712 116.712 25.647 0 49.361-8.272 68.621-22.295l11.147 0c-21.528 18.206-49.366 29.183-79.768 29.183-68.262 0-123.6-55.338-123.6-123.6z" fill="#31c48d" stroke="transparent" data-fill-palette-color="tertiary"></path></g></svg></g><defs></defs></svg><rect width="395.52" height="247.2" fill="none" stroke="none" visibility="hidden"></rect></g></svg></g></svg>